<svg xmlns="http://www.w3.org/2000/svg" width="40" height="40" viewBox="0 0 40 40">
    <g fill="none" fill-rule="evenodd">
        <rect width="40" height="40" rx="5"/>
        <path fill="#4EC0E8" d="M27 24c1.105 0 2 .895 2 2v1c0 1.105-.895 2-2 2h-4c-1.105 0-2-.895-2-2v-1c0-1.105.895-2 2-2h4zm-10-4c1.105 0 2 .895 2 2v5c0 1.105-.895 2-2 2h-4c-1.105 0-2-.895-2-2v-5c0-1.105.895-2 2-2h4zm10-9c1.105 0 2 .895 2 2v7c0 1.105-.895 2-2 2h-4c-1.105 0-2-.895-2-2v-7c0-1.105.895-2 2-2h4zm-10 0c1.105 0 2 .895 2 2v3c0 1.105-.895 2-2 2h-4c-1.105 0-2-.895-2-2v-3c0-1.105.895-2 2-2h4z"/>
    </g>
</svg>
