<svg xmlns="http://www.w3.org/2000/svg" width="40" height="40" viewBox="0 0 40 40">
    <g fill="none" fill-rule="evenodd">
        <rect width="40" height="40" rx="5"/>
        <path fill="#FFF" d="M22.547 28.388l.15-.039c-.065.254-.13.516-.197.787-1.215.586-2.08.874-2.59.864-.544-.01-1.407-.298-2.592-.864-.068-.271-.135-.534-.201-.787 1.809.46 3.62.473 5.43.04zm.33-1.811l.325-.094c-.082.283-.166.583-.252.9-2.033.61-4.061.61-6.094 0-.088-.32-.174-.621-.258-.905 2.091.631 4.187.664 6.279.099zm.66-1.925l.301-.105c-.105.273-.213.582-.325.925-2.413.858-4.82.855-7.233-.006-.114-.347-.224-.655-.33-.928 2.525.91 5.059.948 7.586.114zM19.908 11c3.816 0 6.91 3.093 6.91 6.91 0 1.993-.856 3.876-2.214 5.203-.073.07-.148.168-.227.29-2.997 1.317-5.981 1.31-8.979-.017-.077-.123-.152-.219-.224-.29C13.835 21.773 13 19.899 13 17.909 13 14.093 16.093 11 19.91 11z"/>
    </g>
</svg>
