<svg xmlns="http://www.w3.org/2000/svg" width="40" height="40" viewBox="0 0 40 40">
    <g fill="none" fill-rule="evenodd">
        <rect width="40" height="40" rx="5"/>
        <path fill="#FFF" d="M26 11c2.21 0 4 1.79 4 4v7c0 2.21-1.79 4-4 4h-6l-3.486 2.091c-.473.284-1.087.13-1.371-.343-.094-.155-.143-.333-.143-.514V26h-1c-2.21 0-4-1.79-4-4v-7c0-2.21 1.79-4 4-4h12zm-3.5 9h-8c-.276 0-.5.224-.5.5s.224.5.5.5h8c.276 0 .5-.224.5-.5s-.224-.5-.5-.5zm3-2h-11c-.276 0-.5.224-.5.5s.224.5.5.5h11c.276 0 .5-.224.5-.5s-.224-.5-.5-.5zm0-2h-11c-.276 0-.5.224-.5.5s.224.5.5.5h11c.276 0 .5-.224.5-.5s-.224-.5-.5-.5z"/>
    </g>
</svg>
