<svg xmlns="http://www.w3.org/2000/svg" width="40" height="40" viewBox="0 0 40 40">
    <g fill="none" fill-rule="evenodd">
        <rect width="40" height="40" rx="5"/>
        <path fill="#FFF" fill-rule="nonzero" d="M21.524 11c.253 0 .472.176.525.424l.301 1.383c.369.12.728.27 1.074.445l1.191-.766c.213-.136.493-.106.671.072l2.156 2.156c.178.178.208.458.072.67l-.766 1.192c.176.346.325.705.445 1.074l1.383.3c.248.054.424.273.424.526v3.048c0 .253-.176.472-.424.525l-1.383.301c-.12.369-.27.728-.445 1.074l.766 1.191c.136.213.106.493-.072.671l-2.156 2.156c-.178.179-.458.208-.67.072l-1.192-.766c-.346.176-.705.325-1.074.445l-.3 1.383c-.054.248-.273.424-.526.424h-3.048c-.253 0-.472-.176-.525-.424l-.301-1.383c-.369-.12-.728-.27-1.074-.445l-1.191.766c-.213.136-.493.106-.671-.072l-2.156-2.156c-.178-.178-.208-.458-.072-.67l.766-1.192c-.176-.346-.325-.705-.445-1.074l-1.383-.3c-.248-.054-.424-.273-.424-.526v-3.048c0-.253.176-.472.424-.525l1.383-.301c.12-.369.27-.728.445-1.074l-.766-1.191c-.136-.213-.106-.493.072-.671l2.156-2.156c.178-.178.458-.208.67-.072l1.192.766c.346-.176.705-.325 1.074-.445l.3-1.383c.054-.248.273-.424.526-.424zM20 16.773c-1.78 0-3.227 1.448-3.227 3.227 0 1.78 1.448 3.227 3.227 3.227 1.78 0 3.227-1.448 3.227-3.227 0-1.78-1.448-3.227-3.227-3.227z"/>
    </g>
</svg>
