<svg xmlns="http://www.w3.org/2000/svg" width="40" height="40" viewBox="0 0 40 40">
    <g fill="none" fill-rule="evenodd">
        <rect width="40" height="40" rx="5"/>
        <path fill="#FFF" fill-rule="nonzero" d="M27.793 15.482c-.805-1.378-1.896-2.47-3.275-3.275C23.138 11.402 21.633 11 20 11s-3.138.402-4.517 1.207c-1.38.805-2.471 1.896-3.276 3.275C11.402 16.862 11 18.367 11 20s.402 3.139 1.207 4.518c.805 1.378 1.897 2.47 3.275 3.275C16.862 28.598 18.367 29 20 29s3.139-.402 4.518-1.207 2.47-1.897 3.275-3.275C28.598 23.138 29 21.633 29 20s-.402-3.139-1.207-4.518zm-6.667 9.253c-.079-.093-.106-.171-.082-.234-.008.039-.035.074-.082.105-.04-.047-.11-.105-.211-.175-.102-.071-.172-.13-.211-.177l-.065-.1-.105-.169c-.043-.07-.074-.13-.094-.182-.019-.05-.02-.08-.006-.087-.148.062-.363.02-.644-.13-.055-.03-.137-.113-.246-.246-.11-.132-.223-.19-.34-.175-.039.007-.092.021-.158.04-.066.02-.123.03-.17.03-.047 0-.11-.016-.188-.047-.062-.023-.146-.069-.252-.135-.105-.066-.177-.107-.216-.123l-.153-.082-.187-.093c-.047-.024-.096-.06-.147-.112-.05-.05-.083-.103-.1-.158-.015-.047-.034-.14-.058-.281-.023-.14-.054-.242-.093-.305-.047-.078-.114-.156-.2-.234-.086-.078-.164-.117-.234-.117.063 0 .063-.053 0-.159-.063-.105-.117-.181-.164-.228-.016-.016-.063-.066-.14-.153-.079-.086-.145-.16-.2-.222-.055-.063-.102-.135-.14-.217-.04-.082-.048-.15-.024-.205.008-.008 0-.02-.024-.035-.023-.016-.052-.032-.087-.047-.036-.016-.069-.03-.1-.041-.031-.012-.055-.018-.07-.018.015.032.033.088.053.17.019.082.04.143.064.182.016.031.082.145.2.34.202.328.296.57.28.726-.046.016-.078.008-.093-.023-.016-.031-.028-.074-.036-.129-.007-.054-.015-.093-.023-.117-.023-.047-.084-.098-.182-.153-.097-.054-.158-.109-.181-.164.008 0 .017-.003.029-.011s.022-.012.03-.012c.007-.07-.034-.16-.124-.27-.09-.109-.127-.187-.111-.234-.063-.047-.117-.139-.164-.275-.047-.137-.086-.225-.117-.264-.032-.047-.07-.088-.117-.123s-.106-.074-.176-.117c-.07-.043-.117-.072-.14-.088-.017-.008-.048-.043-.095-.105-.257-.313-.336-.48-.234-.504-.102.023-.186-.053-.252-.229-.066-.176-.088-.31-.064-.404l-.024-.012c.008-.031.012-.123.012-.275 0-.153.01-.291.03-.416.019-.125.056-.188.11-.188-.054.008-.095-.041-.122-.146-.028-.106-.03-.178-.006-.217.007-.024.043-.008.105.047.063.054.098.09.106.105.101-.055.14-.125.117-.211-.016-.031-.098-.113-.246-.246-.336-.219-.508-.324-.516-.317.047-.085.035-.16-.035-.222-.078.047-.123.058-.135.035-.012-.023-.021-.066-.03-.129-.007-.062-.027-.097-.058-.105-.039-.008-.086-.04-.14-.094.695-1.11 1.613-1.977 2.753-2.602.047-.007.133-.011.258-.011.063.007.121.027.176.058.055.031.111.074.17.13.058.054.103.093.135.116.015-.047-.004-.117-.059-.21.016-.048.102-.095.258-.141.18-.024.297-.02.351.011-.046-.07-.125-.168-.234-.293l-.059.059c-.062-.055-.226-.027-.492.082l-.117.064c-.062.035-.113.06-.152.076-.047.016-.094.02-.14.012.374-.203.741-.363 1.1-.48.024.015.063.048.118.1.055.05.098.087.129.11-.024-.015-.04-.007-.047.024-.031.094-.031.172 0 .234.039.055.092.086.158.094.067.008.147.004.24-.012.094-.015.157-.023.188-.023l.117.012c.25.023.348 0 .293-.07.024.03.05.095.082.193.031.097.067.166.105.205.04-.032.047-.086.024-.164-.024-.078-.024-.133 0-.164.008-.016.031-.032.07-.047l.135-.053c.05-.02.084-.033.1-.041.047-.031.015-.086-.094-.164-.016-.008-.049-.02-.1-.035-.05-.016-.095-.032-.134-.047-.04-.016-.08-.037-.123-.064-.043-.028-.063-.06-.06-.094.005-.036.026-.08.065-.135.047-.04.124-.055.229-.047.105.008.186.027.24.059.211.117.242.222.094.316.078.008.172.039.281.094.11.054.153.113.13.176.062-.118.124-.176.187-.176.039.008.076.06.111.158s.057.15.064.158c.063.086.125.106.188.059.062-.047.127-.115.193-.205.067-.09.104-.131.112-.123-.079-.031-.087-.063-.024-.094.117-.07.223-.09.317-.059.023.016.054.051.093.106.07.14.059.207-.035.2.07.062.1.14.088.233-.012.094-.073.137-.182.13-.039 0-.096-.02-.17-.06-.074-.038-.13-.06-.17-.064-.04-.004-.094.018-.164.065-.031.039-.072.105-.123.199-.051.094-.096.16-.135.2-.117.116-.313.16-.586.128.023 0 .021.024-.006.07-.027.047-.064.1-.111.159l-.082.1c-.07.077-.117.167-.14.269 0 .015-.005.068-.013.158s-.023.158-.047.205c.094-.023.168.024.223.14.047.11.047.169 0 .177.258-.04.484-.024.68.047.281.101.442.203.48.304.047-.07.16-.074.34-.012.07.04.133.157.188.352.031.117.084.219.158.305.074.085.154.109.24.07l.035-.024c.032-.015.057-.029.076-.04.02-.012.041-.028.065-.047.023-.02.037-.038.04-.053.004-.016-.001-.031-.017-.047-.054-.047-.095-.111-.123-.193-.027-.082-.02-.155.018-.217.023-.031.086-.078.187-.14.102-.063.165-.126.188-.188.032-.102-.008-.186-.117-.252-.11-.067-.164-.127-.164-.182 0-.04.025-.086.076-.14.05-.055.072-.106.064-.153 0-.024-.013-.072-.04-.147-.028-.074-.044-.129-.048-.164-.003-.035.014-.076.053-.123.055-.031.184-.03.387.006.203.035.336.072.398.111.024.016.075.04.153.07.078.032.146.065.205.1.058.035.092.068.1.1h-.06c.055.047.089.101.1.164.012.063-.017.11-.087.14.046-.007.11.004.187.036.125.047.13.09.012.129.023-.008.056-.016.1-.024.042-.008.075-.02.099-.035.015-.008.035-.021.058-.041.024-.02.041-.031.053-.035.012-.004.03-.008.053-.012s.047.002.07.018c.008 0 .025-.02.053-.059.027-.039.056-.078.087-.117.032-.039.059-.058.083-.058.023 0 .044.01.064.029.02.02.035.04.047.064l.035.076c.012.028.021.05.029.065.015.039.053.08.111.123.059.043.096.084.111.123.008.023.024.082.047.176.024.093.055.158.094.193s.098.064.176.088c.015.008.05.004.105-.012.055-.016.1-.02.135-.012s.053.04.053.094c.046-.047.07-.078.07-.094.008.102.033.184.076.246.043.063.111.09.205.082l-.023.258c-.024.04-.082.069-.176.088-.094.02-.153.037-.176.053-.023.008-.08.055-.17.14-.09.087-.127.137-.111.153-.133-.149-.332-.192-.598-.129-.297.047-.5.094-.61.14-.124.063-.21.122-.257.176-.008.008-.021.036-.041.082l-.058.13c-.02.038-.038.058-.053.058.047-.008.1-.045.158-.111.059-.067.096-.104.111-.112.203-.132.371-.18.505-.14.172.048.2.11.082.188-.016.016-.057.022-.123.018s-.111-.002-.135.006c.07.015.129.037.176.064.047.027.059.064.035.111.125.07.149.149.07.235-.101.101-.222.144-.363.129.024 0 .024.015 0 .047l-.2.128c-.015.008-.065.028-.151.059-.086.031-.145.066-.176.105-.024.032-.035.079-.035.141 0 .063-.004.11-.012.14-.008.032-.04.04-.094.024-.023.047-.096.084-.217.112-.12.027-.2.068-.24.123.047.062.043.125-.012.187-.093.078-.175.07-.246-.023-.039.015-.068.054-.088.117-.019.062-.049.105-.087.129.054.086.046.148-.024.187.008 0 .026.008.053.024.027.015.056.035.088.058.031.024.05.036.058.036-.03.07-.074.105-.129.105.047.125-.011.262-.175.41-.032.031-.08.062-.147.094-.067.031-.127.056-.182.076-.055.02-.086.033-.093.04-.079.071-.137.144-.176.218-.04.074-.045.146-.018.217.028.07.1.117.217.14l.011.094v.21l.012.095c.008.054.014.103.018.146.004.043.004.098 0 .164-.004.067-.021.104-.053.111-.03.008-.074 0-.129-.023-.062-.031-.136-.203-.222-.515-.016-.079-.063-.172-.141-.282-.04.04-.072.065-.1.076-.027.012-.047.014-.058.006-.012-.007-.033-.025-.065-.052-.03-.028-.058-.05-.081-.065-.04-.023-.108-.043-.206-.058-.097-.016-.158-.035-.181-.059-.188.141-.301.106-.34-.105-.016.039-.014.092.006.158.02.067.029.104.029.111-.055.102-.14.11-.258.024-.047-.047-.154-.053-.322-.018s-.28.041-.334.018c.008 0 .023.011.047.035.023.015.039.027.047.035-.008.031-.02.055-.036.07-.015.016-.03.022-.046.018s-.034-.004-.053 0c-.02.004-.037.01-.053.017-.031.024-.07.065-.117.123-.047.059-.082.096-.106.111.047.125.069.221.065.287-.004.067-.016.165-.035.294-.02.128-.03.232-.03.31 0 .125.037.27.112.434.074.164.162.277.263.34.055.03.149.05.282.058.132.008.226 0 .28-.023.048-.024.083-.051.106-.082.024-.031.043-.077.059-.135.015-.059.027-.1.035-.123.055-.148.156-.227.305-.234.094-.008.162.002.205.029.043.027.06.064.052.111-.007.047-.023.096-.046.147-.024.05-.053.107-.088.17-.035.062-.057.11-.064.14-.016.063-.03.15-.041.264-.012.114-.022.182-.03.206.016.007.074.011.176.011 0-.015.006-.04.018-.076.011-.035.017-.057.017-.064.04.062.102.097.188.105.086.008.148-.023.187-.094.016.024.063.082.141.176.078.094.121.172.129.235.008.031.023.082.047.152.023.07.031.12.023.147-.008.027-.047.04-.117.04-.031 0-.05.012-.058.036-.008.023-.008.052 0 .088.008.035.017.068.029.1.012.03.027.064.047.099s.03.056.03.064c.14.258.331.328.573.211 0 .227-.054.352-.164.375-.062.015-.132-.024-.21-.118zm.175 2.648c-.015-.078-.023-.14-.022-.187-.009-.063.019-.147.081-.252.063-.106.094-.186.094-.24-.125-.032-.172-.133-.141-.305.016-.117.129-.274.34-.469.149-.133.195-.32.14-.562-.023-.102-.043-.25-.058-.446-.015-.195-.031-.332-.047-.41 0 .023.037.045.112.064.074.02.119.045.134.076.016-.023.035-.066.059-.129.023-.062.047-.109.07-.14.016-.024.049-.053.1-.088.05-.035.084-.057.1-.065.014-.007.05-.033.104-.076.055-.043.1-.076.135-.1.036-.023.082-.04.14-.052.06-.011.1.006.124.053.039.047.031.119-.023.217-.055.098-.055.166 0 .205.007-.024.015-.074.023-.153.008-.078.031-.136.07-.176.047-.046.092-.074.135-.081.043-.008.082-.003.117.017s.076.047.123.082.09.057.129.064c.117.04.258.125.422.258-.008-.008-.008-.017 0-.03.008-.01.023-.022.047-.034l.064-.035c.02-.012.04-.021.064-.03l.036-.011c.054 0 .093-.004.117-.012.023-.008.056 0 .1.024.042.023.071.04.087.052l.082.065c.039.03.066.054.082.07l.129.082.146.093c.036.024.067.059.094.106.027.047.037.097.03.152.046.008.14.04.28.094.024.015.073.03.147.04.074.012.123.03.147.053-1.132 1.196-2.504 1.935-4.113 2.216z"/>
    </g>
</svg>
