<svg xmlns="http://www.w3.org/2000/svg" width="17" height="17" viewBox="0 0 17 17">
    <g fill="none" fill-rule="evenodd" transform="translate(1 1)">
        <rect width="16" height="16" x="-.5" y="-.5" fill="#FF7A59" stroke="#FFF" rx="2"/>
        <path fill="#FFF" fill-rule="nonzero" d="M7.627 7.043c-.48.453-.78 1.095-.78 1.807 0 .56.186 1.076.498 1.49l-.946.952c-.084-.03-.174-.048-.268-.048-.206 0-.399.08-.544.226-.145.145-.226.34-.226.546 0 .206.08.4.226.544.145.146.34.222.544.222.207 0 .4-.074.547-.222.145-.145.225-.34.225-.544 0-.08-.011-.157-.036-.231l.955-.96c.42.324.944.515 1.515.515 1.374 0 2.484-1.114 2.484-2.488 0-1.246-.911-2.277-2.105-2.459V5.216c.334-.141.538-.454.538-.82 0-.498-.399-.915-.898-.915-.498 0-.892.417-.892.916 0 .365.205.678.539.82v1.169c-.29.04-.566.128-.816.26l-2.742-2.02-.485-.365c.023-.084.038-.172.038-.264 0-.55-.449-.997-1-.997-.55 0-.998.447-.998.997 0 .552.447 1 .997 1 .188 0 .361-.056.512-.146l3.118 2.192zm1.71 3.125c-.728 0-1.318-.59-1.318-1.318 0-.728.59-1.318 1.318-1.318.728 0 1.319.59 1.319 1.318 0 .728-.59 1.318-1.319 1.318z"/>
    </g>
</svg>
