<svg xmlns="http://www.w3.org/2000/svg" width="13" height="13" viewBox="0 0 13 13">
    <path fill="#FFAE6F" d="M6.281 0C2.812 0 0 2.813 0 6.281c0 3.47 2.812 6.281 6.281 6.281s6.281-2.811 6.281-6.28C12.562 2.812 9.75 0 6.282 0zm0 2.786c.588 0 1.064.476 1.064 1.064 0 .587-.476 1.064-1.064 1.064-.587 0-1.064-.477-1.064-1.064 0-.588.477-1.064 1.064-1.064zM7.7 9.219c0 .168-.137.304-.304.304h-2.23c-.167 0-.303-.136-.303-.304v-.608c0-.167.136-.304.304-.304h.304v-1.62h-.304c-.168 0-.304-.137-.304-.304v-.608c0-.168.136-.304.304-.304h1.62c.169 0 .305.136.305.304v2.532h.304c.167 0 .304.137.304.304v.608z"/>
</svg>
