<svg xmlns="http://www.w3.org/2000/svg" width="17" height="17" viewBox="0 0 17 17">
    <g fill="none" fill-rule="evenodd" transform="translate(1 1)">
        <rect width="16" height="16" x="-.5" y="-.5" fill="#0073B2" stroke="#FFF" rx="2"/>
        <path fill="#FFF" fill-rule="nonzero" d="M5.683 5.49v5.01H4.124V5.49h1.559zm3.963-.125c1.575 0 1.868 1.038 1.868 2.388V10.5H9.958l-.002-2.648c-.012-.536-.104-1.118-.807-1.118-.763 0-.918.56-.934 1.171L8.214 10.5H6.658V5.49H8.15v.683h.02c.21-.393.718-.808 1.475-.808zM4.902 3c.497 0 .903.405.903.902 0 .5-.403.903-.903.903-.499 0-.902-.406-.902-.903S4.403 3 4.902 3z"/>
    </g>
</svg>
