<svg xmlns="http://www.w3.org/2000/svg" width="24" height="24" viewBox="0 0 24 24">
    <g fill="none" fill-rule="evenodd">
        <rect width="23" height="23" x=".5" y=".5" fill="#F5F6FA" stroke="#DEE2F2" rx="4"/>
        <path fill="#7B8092" fill-rule="nonzero" d="M8.249 17.067H6.125V9.142h2.124v7.925zM6 7.09c0-.317.106-.578.319-.783C6.53 6.103 6.82 6 7.187 6c.36 0 .649.103.864.308.215.205.322.466.322.783 0 .323-.109.586-.326.791-.217.205-.504.308-.86.308-.357 0-.644-.103-.861-.308C6.109 7.677 6 7.414 6 7.092zm6.19 2.051l.066.916c.566-.708 1.326-1.062 2.278-1.062.84 0 1.465.246 1.875.74.41.493.62 1.23.63 2.211v5.12h-2.117v-5.068c0-.45-.098-.776-.293-.978-.195-.203-.52-.304-.974-.304-.596 0-1.043.254-1.34.762v5.588h-2.117V9.142h1.992z"/>
    </g>
</svg>
