<svg xmlns="http://www.w3.org/2000/svg" width="40" height="40" viewBox="0 0 40 40">
    <g fill="none" fill-rule="evenodd">
        <rect width="40" height="40" rx="5"/>
        <path fill="#FFF" fill-rule="nonzero" d="M24.254 19.422c.561 0 1.086.094 1.559.282.474.188.885.446 1.22.767.32.306.607.679.85 1.107.234.412.424.842.563 1.278.135.422.248.883.336 1.37.086.485.145.944.174 1.364.03.41.044.84.044 1.274 0 1.127-.358 2.039-1.064 2.71-.698.665-1.62 1.001-2.742 1.001H14.806c-1.122 0-2.045-.337-2.742-1-.706-.673-1.064-1.584-1.064-2.71 0-.433.014-.862.043-1.274.03-.422.088-.88.175-1.364.088-.488.2-.95.335-1.37.14-.437.33-.867.564-1.28.242-.427.528-.8.849-1.106.335-.321.746-.58 1.22-.767.473-.188.998-.282 1.559-.282.22 0 .433.09.844.358.257.167.553.358.88.567.283.18.666.349 1.138.502.462.149.93.225 1.393.225.462 0 .93-.076 1.392-.225.473-.153.855-.322 1.138-.502.33-.211.627-.402.88-.567.411-.268.624-.358.844-.358zM19.864 9c1.427 0 2.664.512 3.674 1.522 1.01 1.01 1.522 2.247 1.522 3.674 0 1.428-.512 2.664-1.522 3.674-1.01 1.01-2.246 1.523-3.674 1.523S17.2 18.88 16.19 17.87c-1.01-1.01-1.523-2.246-1.523-3.674 0-1.427.513-2.664 1.523-3.674C17.2 9.512 18.436 9 19.864 9z"/>
    </g>
</svg>
