<svg xmlns="http://www.w3.org/2000/svg" width="40" height="40" viewBox="0 0 40 40">
    <g fill="none" fill-rule="evenodd">
        <rect width="40" height="40" rx="5"/>
        <path fill="#FFF" fill-rule="nonzero" d="M27.579 22.852c-1.11 0-2.198-.174-3.229-.514-.503-.173-1.074-.04-1.405.298l-2.043 1.543c-2.345-1.252-3.845-2.751-5.08-5.079l1.502-1.995c.378-.378.513-.931.351-1.45-.343-1.037-.517-2.126-.517-3.234 0-.783-.638-1.421-1.421-1.421H12.42c-.783 0-1.421.638-1.421 1.421C11 21.562 18.438 29 27.579 29c.783 0 1.421-.638 1.421-1.421v-3.306c0-.784-.638-1.421-1.421-1.421z"/>
    </g>
</svg>
