<svg xmlns="http://www.w3.org/2000/svg" width="24" height="24" viewBox="0 0 24 24">
    <g fill="none" fill-rule="evenodd">
        <rect width="23" height="23" x=".5" y=".5" fill="#F5F6FA" stroke="#DEE2F2" rx="4"/>
        <path fill="#7A819C" fill-rule="nonzero" d="M11.19 8.332c.34 0 .668.188.71.584 0 .008.511 3.618.513 3.634 0 .002 0 .002.002.002.14-.125.375-.198.642-.198.099 0 .202.01.307.03.339.067 1.891.116 2.99.475.37.119.617.461.617.848l-.004 3.824c0 .469-.127.929-.367 1.33l-.09.154c-.36.609-1.015.982-1.722.982h-3.81c-.651 0-1.26-.316-1.636-.848-1.467-2.082-2.243-3.376-2.327-3.883-.1-.588.31-.982.767-.982.26 0 .534.126.74.422.066.095.177.172.216.31.399 1.404 1.504.872 1.506.872.095-.014.164-.093.164-.188l.004-6.677c-.002-.45.395-.691.779-.691zM11.105 5c2.07 0 3.749 1.746 3.749 3.9 0 1.435-.748 2.689-1.857 3.367L12.662 8.9c-.04-.408-.232-.766-.54-1.003-.255-.195-.582-.304-.924-.304-.437 0-.852.172-1.142.474-.261.274-.404.64-.404 1.033l-.002 3.396c-1.35-.592-2.296-1.98-2.294-3.596 0-2.154 1.678-3.9 3.748-3.9z"/>
    </g>
</svg>
